# xmcd
#
# Track frame offsets:
# 150
# 18448
# 34577
# 51251
# 68821
# 82740
# 100539
# 116819
# 135705
# 152192
# 169074
# 187487
# 203753
#
# Disc length: 2954 seconds
#
# Revision: 1
# Processed by: cddbd v1.5.2PL0 Copyright (c) Steve Scherf et al.
# Submitted via: CedeCatalogueitor 2.6.0.6 http://personales.ya.com/cdcatalogueitor
#
DISCID=ad0b880d
DTITLE=Varios - 100% Black 
DYEAR=1900
DGENRE=
TTITLE0=DOWN LOW  Johnny B
TTITLE1=DADDY ROACH Feat. VAN DER TOORN  Cherish
TTITLE2=DOCTOR DELITE  Lt The Music Play
TTITLE3=THE PC GROOVE SENSATION  Givin´ It Up
TTITLE4=THE X-SYSTEM  Tell Me Why
TTITLE5=ALLNITERS Feat. SIR SHAWN and LADY KNIGHT  The Story Of My Life
TTITLE6=TRANCE ANGELS  Bad Times
TTITLE7=N-TRANCE  Broken Dreams
TTITLE8=CLOCK  U Sexy Thing
TTITLE9=COMA  Requiem
TTITLE10=REVENGE  Celebration
TTITLE11=DOWN LOW  Hit Me Right
TTITLE12=KING BEE  Love Thang
EXTD=
EXTT0=
EXTT1=
EXTT2=
EXTT3=
EXTT4=
EXTT5=
EXTT6=
EXTT7=
EXTT8=
EXTT9=
EXTT10=
EXTT11=
EXTT12=
PLAYORDER=
